<?plantuml 1.2026.1?><svg xmlns="http://www.w3.org/2000/svg" xmlns:xlink="http://www.w3.org/1999/xlink" contentStyleType="text/css" data-diagram-type="CLASS" height="703px" preserveAspectRatio="none" style="width:508px;height:703px;background:#FFFFFF;" version="1.1" viewBox="0 0 508 703" width="508px" zoomAndPan="magnify"><title>&#1051;&#1086;&#1082;&#1072;&#1083;&#1100;&#1085;&#1072;&#1103; &#1084;&#1086;&#1076;&#1077;&#1083;&#1100; Production &#1080; &#1087;&#1088;&#1086;&#1077;&#1082;&#1094;&#1080;&#1103; &#1087;&#1088;&#1080;&#1105;&#1084;&#1082;&#1080; WMS</title><defs/><g><g class="title" data-source-line="14"><text fill="#000000" font-family="DejaVu Sans" font-size="14" font-weight="bold" lengthAdjust="spacing" textLength="460.2773" x="20.1113" y="22.9951">&#1051;&#1086;&#1082;&#1072;&#1083;&#1100;&#1085;&#1072;&#1103; &#1084;&#1086;&#1076;&#1077;&#1083;&#1100; Production &#1080; &#1087;&#1088;&#1086;&#1077;&#1082;&#1094;&#1080;&#1103; &#1087;&#1088;&#1080;&#1105;&#1084;&#1082;&#1080; WMS</text></g><!--class Variety--><g class="entity" data-qualified-name="Variety" data-source-line="16" id="ent0002"><rect fill="#F4F8FB" height="86.8906" rx="2.5" ry="2.5" style="stroke:#42637E;stroke-width:0.5;" width="166.8408" x="55" y="49.2969"/><ellipse cx="87.9703" cy="64.2969" fill="#ADD1B2" rx="10" ry="10" style="stroke:#181818;stroke-width:1;"/><path d="M90.3609,69 Q89.8766,69.25 89.3453,69.375 Q88.8297,69.5 88.2516,69.5 Q86.1891,69.5 85.0953,68.1406 Q84.0172,66.7813 84.0172,64.2031 Q84.0172,61.625 85.0953,60.2656 Q86.1891,58.9063 88.2516,58.9063 Q88.8297,58.9063 89.3609,59.0313 Q89.8922,59.1563 90.3609,59.3906 L90.3609,61.6406 Q89.8453,61.1563 89.3453,60.9375 Q88.8609,60.7188 88.3453,60.7188 Q87.2359,60.7188 86.6734,61.5938 Q86.1109,62.4688 86.1109,64.2031 Q86.1109,65.9219 86.6734,66.8125 Q87.2359,67.6875 88.3453,67.6875 Q88.8609,67.6875 89.3453,67.4688 Q89.8453,67.2344 90.3609,66.7656 L90.3609,69 Z " fill="#000000"/><text fill="#000000" font-family="DejaVu Sans" font-size="14" lengthAdjust="spacing" textLength="94.6846" x="105.1859" y="69.1436">&#1045;&#1076;&#1080;&#1085;&#1099;&#1081; &#1089;&#1086;&#1088;&#1090;</text><line style="stroke:#42637E;stroke-width:0.5;" x1="56" x2="220.8408" y1="79.2969" y2="79.2969"/><text fill="#000000" font-family="DejaVu Sans" font-size="14" lengthAdjust="spacing" textLength="149.3721" x="61" y="96.292">variety_id : text &#171;PK&#187;</text><text fill="#000000" font-family="DejaVu Sans" font-size="14" lengthAdjust="spacing" textLength="154.8408" x="61" y="112.5889">canonical_name : text</text><text fill="#000000" font-family="DejaVu Sans" font-size="14" lengthAdjust="spacing" textLength="112.1436" x="61" y="128.8857">active : boolean</text></g><!--class Mapping--><g class="entity" data-qualified-name="Mapping" data-source-line="21" id="ent0003"><rect fill="#F4F8FB" height="119.4844" rx="2.5" ry="2.5" style="stroke:#42637E;stroke-width:0.5;" width="213.4219" x="6" y="172.2969"/><ellipse cx="20" cy="187.2969" fill="#ADD1B2" rx="10" ry="10" style="stroke:#181818;stroke-width:1;"/><path d="M22.3906,192 Q21.9063,192.25 21.375,192.375 Q20.8594,192.5 20.2813,192.5 Q18.2188,192.5 17.125,191.1406 Q16.0469,189.7813 16.0469,187.2031 Q16.0469,184.625 17.125,183.2656 Q18.2188,181.9063 20.2813,181.9063 Q20.8594,181.9063 21.3906,182.0313 Q21.9219,182.1563 22.3906,182.3906 L22.3906,184.6406 Q21.875,184.1563 21.375,183.9375 Q20.8906,183.7188 20.375,183.7188 Q19.2656,183.7188 18.7031,184.5938 Q18.1406,185.4688 18.1406,187.2031 Q18.1406,188.9219 18.7031,189.8125 Q19.2656,190.6875 20.375,190.6875 Q20.8906,190.6875 21.375,190.4688 Q21.875,190.2344 22.3906,189.7656 L22.3906,192 Z " fill="#000000"/><text fill="#000000" font-family="DejaVu Sans" font-size="14" lengthAdjust="spacing" textLength="183.4219" x="33" y="192.1436">&#1057;&#1086;&#1086;&#1090;&#1074;&#1077;&#1090;&#1089;&#1090;&#1074;&#1080;&#1077; &#1080;&#1089;&#1090;&#1086;&#1095;&#1085;&#1080;&#1082;&#1072;</text><line style="stroke:#42637E;stroke-width:0.5;" x1="7" x2="218.4219" y1="202.2969" y2="202.2969"/><text fill="#000000" font-family="DejaVu Sans" font-size="14" lengthAdjust="spacing" textLength="185.1104" x="12" y="219.292">source_system : text &#171;PK&#187;</text><text fill="#000000" font-family="DejaVu Sans" font-size="14" lengthAdjust="spacing" textLength="159.6123" x="12" y="235.5889">entity_type : text &#171;PK&#187;</text><text fill="#000000" font-family="DejaVu Sans" font-size="14" lengthAdjust="spacing" textLength="147.2734" x="12" y="251.8857">source_id : text &#171;PK&#187;</text><text fill="#000000" font-family="DejaVu Sans" font-size="14" lengthAdjust="spacing" textLength="148.9824" x="12" y="268.1826">variety_id : text &#171;FK&#187;</text><text fill="#000000" font-family="DejaVu Sans" font-size="14" lengthAdjust="spacing" textLength="134.9961" x="12" y="284.4795">source_name : text</text></g><!--class Plot--><g class="entity" data-qualified-name="Plot" data-source-line="28" id="ent0004"><rect fill="#F4F8FB" height="70.5938" rx="2.5" ry="2.5" style="stroke:#42637E;stroke-width:0.5;" width="139.3057" x="267" y="57.2969"/><ellipse cx="303.9724" cy="72.2969" fill="#ADD1B2" rx="10" ry="10" style="stroke:#181818;stroke-width:1;"/><path d="M306.363,77 Q305.8787,77.25 305.3474,77.375 Q304.8318,77.5 304.2537,77.5 Q302.1912,77.5 301.0974,76.1406 Q300.0193,74.7813 300.0193,72.2031 Q300.0193,69.625 301.0974,68.2656 Q302.1912,66.9063 304.2537,66.9063 Q304.8318,66.9063 305.363,67.0313 Q305.8943,67.1563 306.363,67.3906 L306.363,69.6406 Q305.8474,69.1563 305.3474,68.9375 Q304.863,68.7188 304.3474,68.7188 Q303.238,68.7188 302.6755,69.5938 Q302.113,70.4688 302.113,72.2031 Q302.113,73.9219 302.6755,74.8125 Q303.238,75.6875 304.3474,75.6875 Q304.863,75.6875 305.3474,75.4688 Q305.8474,75.2344 306.363,74.7656 L306.363,77 Z " fill="#000000"/><text fill="#000000" font-family="DejaVu Sans" font-size="14" lengthAdjust="spacing" textLength="58.2559" x="322.0774" y="77.1436">&#1059;&#1095;&#1072;&#1089;&#1090;&#1086;&#1082;</text><line style="stroke:#42637E;stroke-width:0.5;" x1="268" x2="405.3057" y1="87.2969" y2="87.2969"/><text fill="#000000" font-family="DejaVu Sans" font-size="14" lengthAdjust="spacing" textLength="127.3057" x="273" y="104.292">plot_id : text &#171;PK&#187;</text><text fill="#000000" font-family="DejaVu Sans" font-size="14" lengthAdjust="spacing" textLength="115.0283" x="273" y="120.5889">plot_name : text</text></g><!--class PlotSeason--><g class="entity" data-qualified-name="PlotSeason" data-source-line="32" id="ent0005"><rect fill="#F4F8FB" height="103.1875" rx="2.5" ry="2.5" style="stroke:#42637E;stroke-width:0.5;" width="199.4209" x="237" y="180.2969"/><ellipse cx="270.767" cy="195.2969" fill="#ADD1B2" rx="10" ry="10" style="stroke:#181818;stroke-width:1;"/><path d="M273.1577,200 Q272.6733,200.25 272.142,200.375 Q271.6264,200.5 271.0483,200.5 Q268.9858,200.5 267.892,199.1406 Q266.8139,197.7813 266.8139,195.2031 Q266.8139,192.625 267.892,191.2656 Q268.9858,189.9063 271.0483,189.9063 Q271.6264,189.9063 272.1577,190.0313 Q272.6889,190.1563 273.1577,190.3906 L273.1577,192.6406 Q272.642,192.1563 272.142,191.9375 Q271.6577,191.7188 271.142,191.7188 Q270.0327,191.7188 269.4702,192.5938 Q268.9077,193.4688 268.9077,195.2031 Q268.9077,196.9219 269.4702,197.8125 Q270.0327,198.6875 271.142,198.6875 Q271.6577,198.6875 272.142,198.4688 Q272.642,198.2344 273.1577,197.7656 L273.1577,200 Z " fill="#000000"/><text fill="#000000" font-family="DejaVu Sans" font-size="14" lengthAdjust="spacing" textLength="125.4941" x="288.1597" y="200.1436">&#1059;&#1095;&#1072;&#1089;&#1090;&#1086;&#1082; &#1074; &#1089;&#1077;&#1079;&#1086;&#1085;&#1077;</text><line style="stroke:#42637E;stroke-width:0.5;" x1="238" x2="435.4209" y1="210.2969" y2="210.2969"/><text fill="#000000" font-family="DejaVu Sans" font-size="14" lengthAdjust="spacing" textLength="153.4395" x="243" y="227.292">plot_id : text &#171;PK, FK&#187;</text><text fill="#000000" font-family="DejaVu Sans" font-size="14" lengthAdjust="spacing" textLength="152.1611" x="243" y="243.5889">season : integer &#171;PK&#187;</text><text fill="#000000" font-family="DejaVu Sans" font-size="14" lengthAdjust="spacing" textLength="148.9824" x="243" y="259.8857">variety_id : text &#171;FK&#187;</text><text fill="#000000" font-family="DejaVu Sans" font-size="14" lengthAdjust="spacing" textLength="187.4209" x="243" y="276.1826">bearing_area_ha : numeric</text></g><!--class Batch--><g class="entity" data-qualified-name="Batch" data-source-line="38" id="ent0006"><rect fill="#F4F8FB" height="135.7813" rx="2.5" ry="2.5" style="stroke:#42637E;stroke-width:0.5;" width="294.3379" x="189.5" y="327.2969"/><ellipse cx="282.4282" cy="342.2969" fill="#ADD1B2" rx="10" ry="10" style="stroke:#181818;stroke-width:1;"/><path d="M284.8188,347 Q284.3345,347.25 283.8032,347.375 Q283.2876,347.5 282.7095,347.5 Q280.647,347.5 279.5532,346.1406 Q278.4751,344.7813 278.4751,342.2031 Q278.4751,339.625 279.5532,338.2656 Q280.647,336.9063 282.7095,336.9063 Q283.2876,336.9063 283.8188,337.0313 Q284.3501,337.1563 284.8188,337.3906 L284.8188,339.6406 Q284.3032,339.1563 283.8032,338.9375 Q283.3188,338.7188 282.8032,338.7188 Q281.6938,338.7188 281.1313,339.5938 Q280.5688,340.4688 280.5688,342.2031 Q280.5688,343.9219 281.1313,344.8125 Q281.6938,345.6875 282.8032,345.6875 Q283.3188,345.6875 283.8032,345.4688 Q284.3032,345.2344 284.8188,344.7656 L284.8188,347 Z " fill="#000000"/><text fill="#000000" font-family="DejaVu Sans" font-size="14" lengthAdjust="spacing" textLength="100.4814" x="301.4282" y="347.1436">&#1055;&#1072;&#1088;&#1090;&#1080;&#1103; &#1089;&#1073;&#1086;&#1088;&#1072;</text><line style="stroke:#42637E;stroke-width:0.5;" x1="190.5" x2="482.8379" y1="357.2969" y2="357.2969"/><text fill="#000000" font-family="DejaVu Sans" font-size="14" lengthAdjust="spacing" textLength="140" x="195.5" y="374.292">batch_id : text &#171;PK&#187;</text><text fill="#000000" font-family="DejaVu Sans" font-size="14" lengthAdjust="spacing" textLength="230.2822" x="195.5" y="390.5889">plot_id, season, variety_id : &#171;FK&#187;</text><text fill="#000000" font-family="DejaVu Sans" font-size="14" lengthAdjust="spacing" textLength="282.3379" x="195.5" y="406.8857">source_system, source_record_id : &#171;UK&#187;</text><text fill="#000000" font-family="DejaVu Sans" font-size="14" lengthAdjust="spacing" textLength="136.6436" x="195.5" y="423.1826">harvest_date : date</text><text fill="#000000" font-family="DejaVu Sans" font-size="14" lengthAdjust="spacing" textLength="142.1533" x="195.5" y="439.4795">weight_kg : numeric</text><text fill="#000000" font-family="DejaVu Sans" font-size="14" lengthAdjust="spacing" textLength="145.8242" x="195.5" y="455.7764">status : REGISTERED</text></g><!--class Receipt--><g class="entity" data-qualified-name="Receipt" data-source-line="46" id="ent0007"><rect fill="#F4F8FB" height="119.4844" rx="2.5" ry="2.5" style="stroke:#42637E;stroke-width:0.5;" width="221.5078" x="225.5" y="499.2969"/><ellipse cx="262.4909" cy="514.2969" fill="#ADD1B2" rx="10" ry="10" style="stroke:#181818;stroke-width:1;"/><path d="M264.8815,519 Q264.3971,519.25 263.8659,519.375 Q263.3502,519.5 262.7721,519.5 Q260.7096,519.5 259.6159,518.1406 Q258.5377,516.7813 258.5377,514.2031 Q258.5377,511.625 259.6159,510.2656 Q260.7096,508.9063 262.7721,508.9063 Q263.3502,508.9063 263.8815,509.0313 Q264.4127,509.1563 264.8815,509.3906 L264.8815,511.6406 Q264.3659,511.1563 263.8659,510.9375 Q263.3815,510.7188 262.8659,510.7188 Q261.7565,510.7188 261.194,511.5938 Q260.6315,512.4688 260.6315,514.2031 Q260.6315,515.9219 261.194,516.8125 Q261.7565,517.6875 262.8659,517.6875 Q263.3815,517.6875 263.8659,517.4688 Q264.3659,517.2344 264.8815,516.7656 L264.8815,519 Z " fill="#000000"/><text fill="#000000" font-family="DejaVu Sans" font-size="14" lengthAdjust="spacing" textLength="140.417" x="280.6" y="519.1436">&#1055;&#1088;&#1086;&#1077;&#1082;&#1094;&#1080;&#1103; &#1087;&#1088;&#1080;&#1105;&#1084;&#1082;&#1080;</text><line style="stroke:#42637E;stroke-width:0.5;" x1="226.5" x2="446.0078" y1="529.2969" y2="529.2969"/><text fill="#000000" font-family="DejaVu Sans" font-size="14" lengthAdjust="spacing" textLength="166.1338" x="231.5" y="546.292">batch_id : text &#171;PK, FK&#187;</text><text fill="#000000" font-family="DejaVu Sans" font-size="14" lengthAdjust="spacing" textLength="120.2236" x="231.5" y="562.5889">lot_id : text &#171;UK&#187;</text><text fill="#000000" font-family="DejaVu Sans" font-size="14" lengthAdjust="spacing" textLength="209.5078" x="231.5" y="578.8857">received_weight_kg : numeric</text><text fill="#000000" font-family="DejaVu Sans" font-size="14" lengthAdjust="spacing" textLength="170.5566" x="231.5" y="595.1826">received_at : timestamp</text><text fill="#000000" font-family="DejaVu Sans" font-size="14" lengthAdjust="spacing" textLength="176.5996" x="231.5" y="611.4795">projected_at : timestamp</text></g><g class="entity" data-qualified-name="GMN13" data-source-line="59" id="ent0014"><path d="M171.5,654.2969 L171.5,696.8906 A0,0 0 0 0 171.5,696.8906 L501.9014,696.8906 A0,0 0 0 0 501.9014,696.8906 L501.9014,664.2969 L491.9014,654.2969 L340.5,654.2969 L336.5,618.3076 L332.5,654.2969 L171.5,654.2969 A0,0 0 0 0 171.5,654.2969" fill="#FFF9E8" style="stroke:#A79151;stroke-width:0.5;"/><path d="M491.9014,654.2969 L491.9014,664.2969 L501.9014,664.2969 L491.9014,654.2969" fill="#FFF9E8" style="stroke:#A79151;stroke-width:0.5;"/><text fill="#000000" font-family="DejaVu Sans" font-size="14" lengthAdjust="spacing" textLength="309.4014" x="177.5" y="672.292">&#1054;&#1076;&#1085;&#1072; &#1087;&#1086;&#1083;&#1085;&#1072;&#1103; &#1087;&#1088;&#1080;&#1105;&#1084;&#1082;&#1072;: &#1086;&#1075;&#1088;&#1072;&#1085;&#1080;&#1095;&#1077;&#1085;&#1080;&#1077; A-02.</text><text fill="#000000" font-family="DejaVu Sans" font-size="14" lengthAdjust="spacing" textLength="272.4668" x="177.5" y="688.5889">&#1054;&#1088;&#1080;&#1075;&#1080;&#1085;&#1072;&#1083; &#1092;&#1072;&#1082;&#1090;&#1072; &#1087;&#1088;&#1080;&#1085;&#1072;&#1076;&#1083;&#1077;&#1078;&#1080;&#1090; WMS.</text></g><g class="link" data-entity-1="ent0002" data-entity-2="ent0003" data-link-type="association" id="lnk8"><path d="M130.416,136.3936 C128.2694,147.7045 125.913,160.1205 123.6348,172.1252" fill="none" style="stroke:#42637E;stroke-width:1;"/><text fill="#000000" font-family="DejaVu Sans" font-size="14" lengthAdjust="spacing" textLength="24.8076" x="98.6348" y="168.1203">0..*</text><text fill="#000000" font-family="DejaVu Sans" font-size="14" lengthAdjust="spacing" textLength="8.9072" x="121.416" y="150.3887">1</text></g><g class="link" data-entity-1="ent0002" data-entity-2="ent0005" data-link-type="association" id="lnk9"><path d="M200.0631,136.3936 C220.1565,150.2966 242.6629,165.8692 263.5125,180.2954" fill="none" style="stroke:#42637E;stroke-width:1;"/><text fill="#000000" font-family="DejaVu Sans" font-size="14" lengthAdjust="spacing" textLength="24.8076" x="238.5125" y="176.2905">0..*</text><text fill="#000000" font-family="DejaVu Sans" font-size="14" lengthAdjust="spacing" textLength="8.9072" x="191.0631" y="150.3887">1</text></g><g class="link" data-entity-1="ent0004" data-entity-2="ent0005" data-link-type="association" id="lnk10"><path d="M336.5,128.3678 C336.5,144.0628 336.5,162.9371 336.5,180.1845" fill="none" style="stroke:#42637E;stroke-width:1;"/><text fill="#000000" font-family="DejaVu Sans" font-size="14" lengthAdjust="spacing" textLength="24.8076" x="311.5" y="176.1796">0..*</text><text fill="#000000" font-family="DejaVu Sans" font-size="14" lengthAdjust="spacing" textLength="8.9072" x="327.5" y="142.3629">1</text></g><g class="link" data-entity-1="ent0005" data-entity-2="ent0006" data-link-type="association" id="lnk11"><path d="M336.5,283.4534 C336.5,297.3292 336.5,312.5884 336.5,327.2294" fill="none" style="stroke:#42637E;stroke-width:1;"/><text fill="#000000" font-family="DejaVu Sans" font-size="14" lengthAdjust="spacing" textLength="24.8076" x="311.5" y="323.2246">0..*</text><text fill="#000000" font-family="DejaVu Sans" font-size="14" lengthAdjust="spacing" textLength="8.9072" x="327.5" y="297.4485">1</text></g><g class="link" data-entity-1="ent0006" data-entity-2="ent0007" data-link-type="association" id="lnk12"><path d="M336.5,463.3844 C336.5,475.2573 336.5,487.5362 336.5,499.1536" fill="none" style="stroke:#42637E;stroke-width:1;"/><text fill="#000000" font-family="DejaVu Sans" font-size="14" lengthAdjust="spacing" textLength="26.7148" x="337.5" y="495.1487">0..1</text><text fill="#000000" font-family="DejaVu Sans" font-size="14" lengthAdjust="spacing" textLength="8.9072" x="327.5" y="477.3795">1</text></g><?plantuml-src ZLJDJXH14BxFKvJhpG01HFa98G7PDSPW2Ajud1GppUx0JFUckmTS3GaGemTDZ0TF9XhZ2wp0wBe8laBF6raz-yF0xY9pcUxwggk_hwgwRjKaLYA44EiYrg0Yff6ZexO3NaE94MoWjrsH8kR-0n4A2RTBsPVpK5NqnMx0Ax29eM8vn6UR68Uw9BX-WX63PRQ5wp6KaQl1NkNW9OE9gHouAANOxTmyDNd_xdGn1teXAhNKHt2gD5DQwdCJqcToM2Jqj93NkyIAUQZO_w_hEbuRZGiz85IfD5kSkUgLZxCuFJjnRyBHWGuPcC_ctBHCmvocxysPQQGVmFmXqub9h0bMfV1ZJmU2Wsc2-Plk4vYOLlh6DAslDJJJZtIcHVZpbR9J3Nm6r09LuIidIniKp2SAs3HdwJlp6z83SvxkfuS5G0NhA0Ecw_3A0TXfhzt0XpdGx8M6-VdLnmiB17d81Gyy35rkcw0Davro7kpO_OOG8KFkxFMk_4P4pzD3SsIIz30zo5PDav2CR7EUlYMzJQiz8xA2jPhjFqj4YLXwp5LrfLdKnuLnIbtTrVKQwyCw9mSe62IkTEbGNjc5ZE_4iz5cR5ePqzLGw8ncZHQ3hihiDuW6viWM8p6_Q7TcabxqCaD51HzonmXqURVTvY3WcbMOl97O3KOOhxWe6RfL99p74PE1bsFvbJXIWsGTHWH_s7xfb6a9jLVDc6tOrL3vWJ_IuJTocStLhBUBFDBTIkRHM-cwFckxLb7kCALT7xNDgVsHTPS5bQfsjoiv3HHMeuuLcTQA3n-LdnRNYijvPTU-dqpX6lDOKDD3DVRIVxKo7RBIdjzXlZkONmz6ROy64Gd3g6Rp9iKMytG_jETqNsbXeW2Zer0O7nkxK-W-cI7eHICvMSTUYtOwxh9FLckdNV4SGgjEZXmxs-ZfQoqY49izi_b2uuQ66QMNidtQdMlvN3VcWA1ZsrTs3D2pIB9naC3YwFZa68MmpkROJYqx7I5zJRyMDMMZ4oYpdr3qnFoa08Ts-8qvZFlPnFq7?></g></svg>